<mxfile host="app.diagrams.net" modified="2024-06-03T12:53:32.969Z" agent="Mozilla/5.0 (Windows NT 10.0; Win64; x64) AppleWebKit/537.36 (KHTML, like Gecko) Chrome/125.0.0.0 Safari/537.36" etag="Oy9G-wAJV95SBM16EPW0" version="24.4.13" type="github">
  <diagram name="페이지-1" id="auBFREYfjQX3lNG8udm7">
    <mxGraphModel dx="2062" dy="614" grid="1" gridSize="10" guides="1" tooltips="1" connect="1" arrows="1" fold="1" page="1" pageScale="1" pageWidth="827" pageHeight="1169" math="0" shadow="0">
      <root>
        <mxCell id="0" />
        <mxCell id="1" parent="0" />
        <mxCell id="mh4_eWFmU7ZhSAOvwww8-1" value="관리" style="rhombus;whiteSpace=wrap;html=1;" vertex="1" parent="1">
          <mxGeometry x="380.5" y="370" width="80" height="80" as="geometry" />
        </mxCell>
        <mxCell id="mh4_eWFmU7ZhSAOvwww8-2" value="참가" style="rhombus;whiteSpace=wrap;html=1;" vertex="1" parent="1">
          <mxGeometry x="380" y="485" width="80" height="80" as="geometry" />
        </mxCell>
        <mxCell id="mh4_eWFmU7ZhSAOvwww8-3" value="유저" style="rounded=0;whiteSpace=wrap;html=1;" vertex="1" parent="1">
          <mxGeometry x="174" y="440" width="120" height="60" as="geometry" />
        </mxCell>
        <mxCell id="mh4_eWFmU7ZhSAOvwww8-4" value="채팅방" style="rounded=0;whiteSpace=wrap;html=1;" vertex="1" parent="1">
          <mxGeometry x="550" y="440" width="120" height="60" as="geometry" />
        </mxCell>
        <mxCell id="mh4_eWFmU7ZhSAOvwww8-5" value="메시지" style="rounded=0;whiteSpace=wrap;html=1;" vertex="1" parent="1">
          <mxGeometry x="360" y="130" width="120" height="60" as="geometry" />
        </mxCell>
        <mxCell id="mh4_eWFmU7ZhSAOvwww8-6" value="입력 및 삭제" style="rhombus;whiteSpace=wrap;html=1;" vertex="1" parent="1">
          <mxGeometry x="380" y="240" width="80" height="80" as="geometry" />
        </mxCell>
        <mxCell id="mh4_eWFmU7ZhSAOvwww8-7" value="프로필사진" style="ellipse;whiteSpace=wrap;html=1;" vertex="1" parent="1">
          <mxGeometry x="90" y="350" width="100" height="50" as="geometry" />
        </mxCell>
        <mxCell id="mh4_eWFmU7ZhSAOvwww8-8" value="개인정보" style="ellipse;shape=doubleEllipse;whiteSpace=wrap;html=1;" vertex="1" parent="1">
          <mxGeometry x="80" y="529" width="100" height="55" as="geometry" />
        </mxCell>
        <mxCell id="mh4_eWFmU7ZhSAOvwww8-9" value="닉네임" style="ellipse;whiteSpace=wrap;html=1;" vertex="1" parent="1">
          <mxGeometry x="200" y="340" width="100" height="50" as="geometry" />
        </mxCell>
        <mxCell id="mh4_eWFmU7ZhSAOvwww8-10" value="&lt;u&gt;uid&lt;/u&gt;" style="ellipse;whiteSpace=wrap;html=1;" vertex="1" parent="1">
          <mxGeometry x="194" y="550" width="100" height="50" as="geometry" />
        </mxCell>
        <mxCell id="mh4_eWFmU7ZhSAOvwww8-11" value="방제목" style="ellipse;whiteSpace=wrap;html=1;" vertex="1" parent="1">
          <mxGeometry x="730" y="460" width="100" height="50" as="geometry" />
        </mxCell>
        <mxCell id="mh4_eWFmU7ZhSAOvwww8-12" value="남자인원수제한" style="ellipse;whiteSpace=wrap;html=1;" vertex="1" parent="1">
          <mxGeometry x="856" y="550" width="100" height="50" as="geometry" />
        </mxCell>
        <mxCell id="mh4_eWFmU7ZhSAOvwww8-13" value="여자&lt;span style=&quot;background-color: initial;&quot;&gt;인원수제한&lt;/span&gt;" style="ellipse;whiteSpace=wrap;html=1;" vertex="1" parent="1">
          <mxGeometry x="856" y="495" width="100" height="50" as="geometry" />
        </mxCell>
        <mxCell id="mh4_eWFmU7ZhSAOvwww8-14" style="edgeStyle=orthogonalEdgeStyle;rounded=0;orthogonalLoop=1;jettySize=auto;html=1;exitX=0.5;exitY=1;exitDx=0;exitDy=0;" edge="1" parent="1" source="mh4_eWFmU7ZhSAOvwww8-4" target="mh4_eWFmU7ZhSAOvwww8-4">
          <mxGeometry relative="1" as="geometry" />
        </mxCell>
        <mxCell id="mh4_eWFmU7ZhSAOvwww8-15" value="인원수 제한" style="ellipse;shape=doubleEllipse;whiteSpace=wrap;html=1;" vertex="1" parent="1">
          <mxGeometry x="730" y="520" width="100" height="55" as="geometry" />
        </mxCell>
        <mxCell id="mh4_eWFmU7ZhSAOvwww8-16" value="생성시각" style="ellipse;whiteSpace=wrap;html=1;" vertex="1" parent="1">
          <mxGeometry x="730" y="400" width="100" height="50" as="geometry" />
        </mxCell>
        <mxCell id="mh4_eWFmU7ZhSAOvwww8-17" value="&lt;u&gt;roomID&lt;/u&gt;" style="ellipse;whiteSpace=wrap;html=1;" vertex="1" parent="1">
          <mxGeometry x="730" y="340" width="100" height="50" as="geometry" />
        </mxCell>
        <mxCell id="mh4_eWFmU7ZhSAOvwww8-18" value="입력시각" style="ellipse;whiteSpace=wrap;html=1;" vertex="1" parent="1">
          <mxGeometry x="570" y="230" width="100" height="50" as="geometry" />
        </mxCell>
        <mxCell id="mh4_eWFmU7ZhSAOvwww8-19" value="삭제여부" style="ellipse;whiteSpace=wrap;html=1;" vertex="1" parent="1">
          <mxGeometry x="538.75" y="180" width="100" height="50" as="geometry" />
        </mxCell>
        <mxCell id="mh4_eWFmU7ZhSAOvwww8-20" value="텍스트" style="ellipse;whiteSpace=wrap;html=1;" vertex="1" parent="1">
          <mxGeometry x="317" y="40" width="100" height="50" as="geometry" />
        </mxCell>
        <mxCell id="mh4_eWFmU7ZhSAOvwww8-21" value="&lt;u&gt;messageID&lt;/u&gt;" style="ellipse;whiteSpace=wrap;html=1;" vertex="1" parent="1">
          <mxGeometry x="427" y="40" width="100" height="50" as="geometry" />
        </mxCell>
        <mxCell id="mh4_eWFmU7ZhSAOvwww8-22" value="참가&lt;span style=&quot;background-color: initial;&quot;&gt;시각&lt;/span&gt;" style="ellipse;whiteSpace=wrap;html=1;" vertex="1" parent="1">
          <mxGeometry x="500" y="545" width="100" height="50" as="geometry" />
        </mxCell>
        <mxCell id="mh4_eWFmU7ZhSAOvwww8-23" value="트랜잭션&lt;div&gt;(보증금)&lt;/div&gt;" style="rhombus;whiteSpace=wrap;html=1;" vertex="1" parent="1">
          <mxGeometry x="382" y="610" width="80" height="80" as="geometry" />
        </mxCell>
        <mxCell id="mh4_eWFmU7ZhSAOvwww8-24" value="처리 시각" style="ellipse;whiteSpace=wrap;html=1;" vertex="1" parent="1">
          <mxGeometry x="429.25" y="730" width="100" height="50" as="geometry" />
        </mxCell>
        <mxCell id="mh4_eWFmU7ZhSAOvwww8-25" value="Email" style="ellipse;whiteSpace=wrap;html=1;" vertex="1" parent="1">
          <mxGeometry x="-110" y="405" width="100" height="50" as="geometry" />
        </mxCell>
        <mxCell id="mh4_eWFmU7ZhSAOvwww8-26" value="Password" style="ellipse;whiteSpace=wrap;html=1;" vertex="1" parent="1">
          <mxGeometry x="-110" y="485" width="100" height="50" as="geometry" />
        </mxCell>
        <mxCell id="mh4_eWFmU7ZhSAOvwww8-27" value="트랜잭션 타입&lt;div&gt;(예치 / 반환)&lt;/div&gt;" style="ellipse;whiteSpace=wrap;html=1;" vertex="1" parent="1">
          <mxGeometry x="250.5" y="670" width="100" height="50" as="geometry" />
        </mxCell>
        <mxCell id="mh4_eWFmU7ZhSAOvwww8-28" value="요청 시각" style="ellipse;whiteSpace=wrap;html=1;" vertex="1" parent="1">
          <mxGeometry x="324.5" y="730" width="100" height="50" as="geometry" />
        </mxCell>
        <mxCell id="mh4_eWFmU7ZhSAOvwww8-29" value="금액" style="ellipse;whiteSpace=wrap;html=1;" vertex="1" parent="1">
          <mxGeometry x="490.5" y="670" width="100" height="50" as="geometry" />
        </mxCell>
        <mxCell id="mh4_eWFmU7ZhSAOvwww8-30" value="" style="endArrow=none;html=1;rounded=0;exitX=1;exitY=0.5;exitDx=0;exitDy=0;entryX=0;entryY=0.5;entryDx=0;entryDy=0;" edge="1" parent="1" source="mh4_eWFmU7ZhSAOvwww8-25" target="mh4_eWFmU7ZhSAOvwww8-32">
          <mxGeometry width="50" height="50" relative="1" as="geometry">
            <mxPoint y="417" as="sourcePoint" />
            <mxPoint x="10" y="470" as="targetPoint" />
          </mxGeometry>
        </mxCell>
        <mxCell id="mh4_eWFmU7ZhSAOvwww8-31" value="" style="endArrow=none;html=1;rounded=0;exitX=1;exitY=0.5;exitDx=0;exitDy=0;entryX=0;entryY=0.5;entryDx=0;entryDy=0;" edge="1" parent="1" source="mh4_eWFmU7ZhSAOvwww8-26" target="mh4_eWFmU7ZhSAOvwww8-32">
          <mxGeometry width="50" height="50" relative="1" as="geometry">
            <mxPoint x="-40" y="480" as="sourcePoint" />
            <mxPoint x="10" y="470" as="targetPoint" />
          </mxGeometry>
        </mxCell>
        <mxCell id="mh4_eWFmU7ZhSAOvwww8-32" value="인증정보" style="ellipse;shape=doubleEllipse;whiteSpace=wrap;html=1;" vertex="1" parent="1">
          <mxGeometry x="30" y="442.5" width="100" height="55" as="geometry" />
        </mxCell>
        <mxCell id="mh4_eWFmU7ZhSAOvwww8-33" value="" style="endArrow=none;html=1;rounded=0;entryX=0.5;entryY=0;entryDx=0;entryDy=0;exitX=0.5;exitY=1;exitDx=0;exitDy=0;" edge="1" parent="1" source="mh4_eWFmU7ZhSAOvwww8-7" target="mh4_eWFmU7ZhSAOvwww8-3">
          <mxGeometry width="50" height="50" relative="1" as="geometry">
            <mxPoint x="110" y="480" as="sourcePoint" />
            <mxPoint x="160" y="430" as="targetPoint" />
          </mxGeometry>
        </mxCell>
        <mxCell id="mh4_eWFmU7ZhSAOvwww8-34" value="" style="endArrow=none;html=1;rounded=0;exitX=0.5;exitY=1;exitDx=0;exitDy=0;" edge="1" parent="1" source="mh4_eWFmU7ZhSAOvwww8-9">
          <mxGeometry width="50" height="50" relative="1" as="geometry">
            <mxPoint x="224" y="400" as="sourcePoint" />
            <mxPoint x="230" y="440" as="targetPoint" />
          </mxGeometry>
        </mxCell>
        <mxCell id="mh4_eWFmU7ZhSAOvwww8-35" value="" style="endArrow=none;html=1;rounded=0;entryX=0.5;entryY=1;entryDx=0;entryDy=0;exitX=0.5;exitY=0;exitDx=0;exitDy=0;" edge="1" parent="1" source="mh4_eWFmU7ZhSAOvwww8-8" target="mh4_eWFmU7ZhSAOvwww8-3">
          <mxGeometry width="50" height="50" relative="1" as="geometry">
            <mxPoint x="180" y="520" as="sourcePoint" />
            <mxPoint x="234" y="545" as="targetPoint" />
          </mxGeometry>
        </mxCell>
        <mxCell id="mh4_eWFmU7ZhSAOvwww8-36" value="" style="endArrow=none;html=1;rounded=0;exitX=0.5;exitY=1;exitDx=0;exitDy=0;entryX=0.5;entryY=0;entryDx=0;entryDy=0;" edge="1" parent="1" source="mh4_eWFmU7ZhSAOvwww8-3" target="mh4_eWFmU7ZhSAOvwww8-10">
          <mxGeometry width="50" height="50" relative="1" as="geometry">
            <mxPoint x="290" y="405" as="sourcePoint" />
            <mxPoint x="290" y="530" as="targetPoint" />
          </mxGeometry>
        </mxCell>
        <mxCell id="mh4_eWFmU7ZhSAOvwww8-37" value="" style="endArrow=none;html=1;rounded=0;exitX=1;exitY=0.5;exitDx=0;exitDy=0;entryX=0;entryY=0.5;entryDx=0;entryDy=0;" edge="1" parent="1" source="mh4_eWFmU7ZhSAOvwww8-32" target="mh4_eWFmU7ZhSAOvwww8-3">
          <mxGeometry width="50" height="50" relative="1" as="geometry">
            <mxPoint x="150" y="530" as="sourcePoint" />
            <mxPoint x="200" y="480" as="targetPoint" />
          </mxGeometry>
        </mxCell>
        <mxCell id="mh4_eWFmU7ZhSAOvwww8-38" value="" style="endArrow=none;html=1;rounded=0;exitX=1;exitY=0.5;exitDx=0;exitDy=0;entryX=0;entryY=0.5;entryDx=0;entryDy=0;" edge="1" parent="1" source="mh4_eWFmU7ZhSAOvwww8-4" target="mh4_eWFmU7ZhSAOvwww8-17">
          <mxGeometry width="50" height="50" relative="1" as="geometry">
            <mxPoint x="648.75" y="415" as="sourcePoint" />
            <mxPoint x="698.75" y="365" as="targetPoint" />
          </mxGeometry>
        </mxCell>
        <mxCell id="mh4_eWFmU7ZhSAOvwww8-39" value="" style="endArrow=none;html=1;rounded=0;entryX=0;entryY=0.5;entryDx=0;entryDy=0;exitX=1;exitY=0.5;exitDx=0;exitDy=0;" edge="1" parent="1" source="mh4_eWFmU7ZhSAOvwww8-4" target="mh4_eWFmU7ZhSAOvwww8-16">
          <mxGeometry width="50" height="50" relative="1" as="geometry">
            <mxPoint x="690" y="470" as="sourcePoint" />
            <mxPoint x="500" y="550" as="targetPoint" />
          </mxGeometry>
        </mxCell>
        <mxCell id="mh4_eWFmU7ZhSAOvwww8-40" value="" style="endArrow=none;html=1;rounded=0;entryX=1;entryY=0.5;entryDx=0;entryDy=0;exitX=0;exitY=0.5;exitDx=0;exitDy=0;" edge="1" parent="1" source="mh4_eWFmU7ZhSAOvwww8-11" target="mh4_eWFmU7ZhSAOvwww8-4">
          <mxGeometry width="50" height="50" relative="1" as="geometry">
            <mxPoint x="450" y="600" as="sourcePoint" />
            <mxPoint x="500" y="550" as="targetPoint" />
          </mxGeometry>
        </mxCell>
        <mxCell id="mh4_eWFmU7ZhSAOvwww8-41" value="" style="endArrow=none;html=1;rounded=0;exitX=0;exitY=0.5;exitDx=0;exitDy=0;entryX=1;entryY=0.5;entryDx=0;entryDy=0;" edge="1" parent="1" source="mh4_eWFmU7ZhSAOvwww8-15" target="mh4_eWFmU7ZhSAOvwww8-4">
          <mxGeometry width="50" height="50" relative="1" as="geometry">
            <mxPoint x="450" y="600" as="sourcePoint" />
            <mxPoint x="500" y="550" as="targetPoint" />
          </mxGeometry>
        </mxCell>
        <mxCell id="mh4_eWFmU7ZhSAOvwww8-42" value="" style="endArrow=none;html=1;rounded=0;entryX=0;entryY=0.5;entryDx=0;entryDy=0;exitX=1;exitY=0.5;exitDx=0;exitDy=0;" edge="1" parent="1" source="mh4_eWFmU7ZhSAOvwww8-15" target="mh4_eWFmU7ZhSAOvwww8-13">
          <mxGeometry width="50" height="50" relative="1" as="geometry">
            <mxPoint x="450" y="490" as="sourcePoint" />
            <mxPoint x="500" y="440" as="targetPoint" />
          </mxGeometry>
        </mxCell>
        <mxCell id="mh4_eWFmU7ZhSAOvwww8-43" value="" style="endArrow=none;html=1;rounded=0;entryX=0;entryY=0.5;entryDx=0;entryDy=0;exitX=1;exitY=0.5;exitDx=0;exitDy=0;" edge="1" parent="1" source="mh4_eWFmU7ZhSAOvwww8-15" target="mh4_eWFmU7ZhSAOvwww8-12">
          <mxGeometry width="50" height="50" relative="1" as="geometry">
            <mxPoint x="840" y="558" as="sourcePoint" />
            <mxPoint x="866" y="530" as="targetPoint" />
          </mxGeometry>
        </mxCell>
        <mxCell id="mh4_eWFmU7ZhSAOvwww8-44" value="" style="endArrow=none;html=1;rounded=0;entryX=0;entryY=0.5;entryDx=0;entryDy=0;exitX=1;exitY=0;exitDx=0;exitDy=0;" edge="1" parent="1" source="mh4_eWFmU7ZhSAOvwww8-6" target="mh4_eWFmU7ZhSAOvwww8-18">
          <mxGeometry width="50" height="50" relative="1" as="geometry">
            <mxPoint x="460" y="370" as="sourcePoint" />
            <mxPoint x="510" y="320" as="targetPoint" />
          </mxGeometry>
        </mxCell>
        <mxCell id="mh4_eWFmU7ZhSAOvwww8-45" value="" style="endArrow=none;html=1;rounded=0;entryX=1;entryY=0;entryDx=0;entryDy=0;exitX=0;exitY=0.5;exitDx=0;exitDy=0;" edge="1" parent="1" source="mh4_eWFmU7ZhSAOvwww8-19" target="mh4_eWFmU7ZhSAOvwww8-6">
          <mxGeometry width="50" height="50" relative="1" as="geometry">
            <mxPoint x="460" y="370" as="sourcePoint" />
            <mxPoint x="510" y="320" as="targetPoint" />
          </mxGeometry>
        </mxCell>
        <mxCell id="mh4_eWFmU7ZhSAOvwww8-46" value="" style="endArrow=none;html=1;rounded=0;entryX=1;entryY=1;entryDx=0;entryDy=0;exitX=0;exitY=0.5;exitDx=0;exitDy=0;" edge="1" parent="1" source="mh4_eWFmU7ZhSAOvwww8-22" target="mh4_eWFmU7ZhSAOvwww8-2">
          <mxGeometry width="50" height="50" relative="1" as="geometry">
            <mxPoint x="460" y="580" as="sourcePoint" />
            <mxPoint x="510" y="530" as="targetPoint" />
          </mxGeometry>
        </mxCell>
        <mxCell id="mh4_eWFmU7ZhSAOvwww8-47" value="" style="endArrow=none;html=1;rounded=0;exitX=1;exitY=0.5;exitDx=0;exitDy=0;entryX=0;entryY=1;entryDx=0;entryDy=0;" edge="1" parent="1" source="mh4_eWFmU7ZhSAOvwww8-27" target="mh4_eWFmU7ZhSAOvwww8-23">
          <mxGeometry width="50" height="50" relative="1" as="geometry">
            <mxPoint x="450.5" y="580" as="sourcePoint" />
            <mxPoint x="500.5" y="530" as="targetPoint" />
          </mxGeometry>
        </mxCell>
        <mxCell id="mh4_eWFmU7ZhSAOvwww8-48" value="" style="endArrow=none;html=1;rounded=0;exitX=0.5;exitY=0;exitDx=0;exitDy=0;entryX=0;entryY=1;entryDx=0;entryDy=0;" edge="1" parent="1" source="mh4_eWFmU7ZhSAOvwww8-28" target="mh4_eWFmU7ZhSAOvwww8-23">
          <mxGeometry width="50" height="50" relative="1" as="geometry">
            <mxPoint x="352.5" y="715" as="sourcePoint" />
            <mxPoint x="400.5" y="670" as="targetPoint" />
          </mxGeometry>
        </mxCell>
        <mxCell id="mh4_eWFmU7ZhSAOvwww8-49" value="" style="endArrow=none;html=1;rounded=0;exitX=0.5;exitY=0;exitDx=0;exitDy=0;entryX=1;entryY=1;entryDx=0;entryDy=0;" edge="1" parent="1" source="mh4_eWFmU7ZhSAOvwww8-24" target="mh4_eWFmU7ZhSAOvwww8-23">
          <mxGeometry width="50" height="50" relative="1" as="geometry">
            <mxPoint x="440.5" y="725" as="sourcePoint" />
            <mxPoint x="468.5" y="665" as="targetPoint" />
          </mxGeometry>
        </mxCell>
        <mxCell id="mh4_eWFmU7ZhSAOvwww8-50" value="" style="endArrow=none;html=1;rounded=0;exitX=0;exitY=0.5;exitDx=0;exitDy=0;entryX=1;entryY=1;entryDx=0;entryDy=0;" edge="1" parent="1" source="mh4_eWFmU7ZhSAOvwww8-29" target="mh4_eWFmU7ZhSAOvwww8-23">
          <mxGeometry width="50" height="50" relative="1" as="geometry">
            <mxPoint x="528" y="670" as="sourcePoint" />
            <mxPoint x="491" y="610" as="targetPoint" />
          </mxGeometry>
        </mxCell>
        <mxCell id="mh4_eWFmU7ZhSAOvwww8-51" value="" style="shape=link;html=1;rounded=0;exitX=1;exitY=0.5;exitDx=0;exitDy=0;entryX=0;entryY=0.5;entryDx=0;entryDy=0;" edge="1" parent="1" source="mh4_eWFmU7ZhSAOvwww8-1" target="mh4_eWFmU7ZhSAOvwww8-4">
          <mxGeometry relative="1" as="geometry">
            <mxPoint x="310" y="460" as="sourcePoint" />
            <mxPoint x="600" y="360" as="targetPoint" />
          </mxGeometry>
        </mxCell>
        <mxCell id="mh4_eWFmU7ZhSAOvwww8-52" value="1" style="resizable=0;html=1;whiteSpace=wrap;align=right;verticalAlign=bottom;fontSize=24;" connectable="0" vertex="1" parent="mh4_eWFmU7ZhSAOvwww8-51">
          <mxGeometry x="1" relative="1" as="geometry">
            <mxPoint x="-40" y="-40" as="offset" />
          </mxGeometry>
        </mxCell>
        <mxCell id="mh4_eWFmU7ZhSAOvwww8-53" value="" style="endArrow=none;html=1;rounded=0;entryX=1;entryY=0.5;entryDx=0;entryDy=0;exitX=0;exitY=0.5;exitDx=0;exitDy=0;" edge="1" parent="1" source="mh4_eWFmU7ZhSAOvwww8-1" target="mh4_eWFmU7ZhSAOvwww8-3">
          <mxGeometry relative="1" as="geometry">
            <mxPoint x="310" y="460" as="sourcePoint" />
            <mxPoint x="470" y="460" as="targetPoint" />
          </mxGeometry>
        </mxCell>
        <mxCell id="mh4_eWFmU7ZhSAOvwww8-54" value="1" style="resizable=0;html=1;whiteSpace=wrap;align=right;verticalAlign=bottom;fontSize=24;direction=south;" connectable="0" vertex="1" parent="mh4_eWFmU7ZhSAOvwww8-53">
          <mxGeometry x="1" relative="1" as="geometry">
            <mxPoint x="56" y="-40" as="offset" />
          </mxGeometry>
        </mxCell>
        <mxCell id="mh4_eWFmU7ZhSAOvwww8-55" value="" style="shape=link;html=1;rounded=0;entryX=0;entryY=0.5;entryDx=0;entryDy=0;exitX=1;exitY=0.5;exitDx=0;exitDy=0;" edge="1" parent="1" source="mh4_eWFmU7ZhSAOvwww8-2" target="mh4_eWFmU7ZhSAOvwww8-4">
          <mxGeometry relative="1" as="geometry">
            <mxPoint x="310" y="570" as="sourcePoint" />
            <mxPoint x="470" y="570" as="targetPoint" />
          </mxGeometry>
        </mxCell>
        <mxCell id="mh4_eWFmU7ZhSAOvwww8-56" value="N" style="resizable=0;html=1;whiteSpace=wrap;align=right;verticalAlign=bottom;fontSize=24;" connectable="0" vertex="1" parent="mh4_eWFmU7ZhSAOvwww8-55">
          <mxGeometry x="1" relative="1" as="geometry">
            <mxPoint x="-50" y="40" as="offset" />
          </mxGeometry>
        </mxCell>
        <mxCell id="mh4_eWFmU7ZhSAOvwww8-57" value="" style="endArrow=none;html=1;rounded=0;entryX=0;entryY=0.5;entryDx=0;entryDy=0;exitX=1;exitY=0.5;exitDx=0;exitDy=0;" edge="1" parent="1" source="mh4_eWFmU7ZhSAOvwww8-3" target="mh4_eWFmU7ZhSAOvwww8-2">
          <mxGeometry relative="1" as="geometry">
            <mxPoint x="310" y="570" as="sourcePoint" />
            <mxPoint x="470" y="570" as="targetPoint" />
          </mxGeometry>
        </mxCell>
        <mxCell id="mh4_eWFmU7ZhSAOvwww8-58" value="&lt;font style=&quot;font-size: 24px;&quot;&gt;M&lt;/font&gt;" style="resizable=0;html=1;whiteSpace=wrap;align=left;verticalAlign=bottom;direction=south;" connectable="0" vertex="1" parent="mh4_eWFmU7ZhSAOvwww8-57">
          <mxGeometry x="-1" relative="1" as="geometry">
            <mxPoint x="46" y="40" as="offset" />
          </mxGeometry>
        </mxCell>
      </root>
    </mxGraphModel>
  </diagram>
</mxfile>
